<svg width="142" height="142" viewBox="0 0 142 142" fill="none" xmlns="http://www.w3.org/2000/svg">
<path d="M91.8896 56.3895L77.2735 71L91.8896 85.6105C92.3018 86.0228 92.6289 86.5122 92.852 87.0509C93.0751 87.5896 93.19 88.1669 93.19 88.75C93.19 89.3331 93.0751 89.9104 92.852 90.4491C92.6289 90.9878 92.3018 91.4772 91.8896 91.8895C91.4773 92.3018 90.9878 92.6289 90.4491 92.852C89.9104 93.0751 89.3331 93.19 88.75 93.19C88.167 93.19 87.5896 93.0751 87.0509 92.852C86.5122 92.6289 86.0228 92.3018 85.6105 91.8895L71 77.2735L56.3896 91.8895C55.9773 92.3018 55.4878 92.6289 54.9491 92.852C54.4104 93.0751 53.8331 93.19 53.25 93.19C52.667 93.19 52.0896 93.0751 51.5509 92.852C51.0122 92.6289 50.5228 92.3018 50.1105 91.8895C49.6982 91.4772 49.3712 90.9878 49.148 90.4491C48.9249 89.9104 48.8101 89.3331 48.8101 88.75C48.8101 88.1669 48.9249 87.5896 49.148 87.0509C49.3712 86.5122 49.6982 86.0228 50.1105 85.6105L64.7265 71L50.1105 56.3895C49.2778 55.5569 48.8101 54.4276 48.8101 53.25C48.8101 52.0724 49.2778 50.9431 50.1105 50.1105C50.9431 49.2778 52.0725 48.81 53.25 48.81C54.4276 48.81 55.5569 49.2778 56.3896 50.1105L71 64.7265L85.6105 50.1105C86.0228 49.6982 86.5122 49.3711 87.0509 49.148C87.5896 48.9249 88.167 48.81 88.75 48.81C89.3331 48.81 89.9104 48.9249 90.4491 49.148C90.9878 49.3711 91.4773 49.6982 91.8896 50.1105C92.3018 50.5228 92.6289 51.0122 92.852 51.5509C93.0751 52.0896 93.19 52.6669 93.19 53.25C93.19 53.8331 93.0751 54.4104 92.852 54.9491C92.6289 55.4878 92.3018 55.9772 91.8896 56.3895ZM128.688 71C128.688 82.4095 125.304 93.5628 118.965 103.049C112.627 112.536 103.617 119.93 93.0761 124.296C82.5351 128.663 70.936 129.805 59.7458 127.579C48.5555 125.353 38.2765 119.859 30.2088 111.791C22.1411 103.723 16.6469 93.4446 14.421 82.2543C12.1951 71.064 13.3375 59.465 17.7037 48.9239C22.07 38.3829 29.4639 29.3734 38.9506 23.0346C48.4372 16.6958 59.5905 13.3125 71 13.3125C86.2947 13.3287 100.958 19.4116 111.773 30.2266C122.588 41.0416 128.671 55.7053 128.688 71ZM119.813 71C119.813 61.3458 116.95 51.9084 111.586 43.8812C106.223 35.8541 98.5991 29.5976 89.6798 25.9031C80.7604 22.2086 70.9459 21.242 61.4772 23.1254C52.0085 25.0089 43.3109 29.6578 36.4844 36.4844C29.6578 43.3109 25.0089 52.0085 23.1254 61.4772C21.242 70.9459 22.2087 80.7604 25.9032 89.6797C29.5977 98.5991 35.8541 106.223 43.8813 111.586C51.9084 116.95 61.3458 119.812 71 119.812C83.9414 119.798 96.3485 114.65 105.499 105.499C114.65 96.3485 119.798 83.9414 119.813 71Z" fill="#DC1F25"/>
</svg>
