<svg xmlns="http://www.w3.org/2000/svg" viewBox="0 0 192.61 177.85">
  <defs>
    <style>
      .a {
        fill: #da2228;
      }

      .b {
        fill: #240c6f;
      }
    </style>
  </defs>
  <title>Recurso 1</title>
  <g>
    <path class="a" d="M25.4,109.2C6.49,92.87-3.65,73.67,1.21,49.15c5-25,20.73-40.43,45.48-46.21C59.6-.07,72.2,2,84.14,7.73,88.8,10,89,11.26,85.37,15q-19,19.5-38,39c-4.36,4.49-4.15,5.64,1.15,9a30.1,30.1,0,0,0,37.26-4.22c7.14-7,14-14.28,21-21.35,4.38-4.39,7.7-4.5,12-.12q26.62,27.08,53,54.35c4.56,4.71,4.45,11.47.21,15.75-4.76,4.81-11.58,5-16.45.11-11.08-11.06-22-22.27-33.09-33.33-1.5-1.49-3.3-5-5.32-3.14-2.64,2.45,1.15,4.18,2.67,5.75,10.4,10.79,20.93,21.45,31.39,32.19,6,6.19,6.72,12.61,2,17.62s-12,4.7-18.16-1c-11.39-10.53-21.9-21.9-32.55-33.15-1.11-1.17-2.25-3.85-4.25-1.81s.65,3.16,1.81,4.35q16.77,17.15,33.6,34.23c6.33,6.46,4.61,16.07-3.33,19.37-2.42,1-3.84,1-4.92-1.93-2.61-6.94-8-9.92-15.28-9.59-2.05.09-2.42-.52-2.52-2.46-.58-11.85-4.49-15.8-16.82-16.87-2-.17-1.94-.89-2-2.41-.32-11.71-5.17-16.84-16.53-17.17-2.41-.07-2.71-.78-2.62-2.83.31-7.1-2.75-12.29-9.37-15-6.84-2.77-12.64-.86-17.6,4.45-3.52,3.77-7.19,7.42-10.92,11A18.7,18.7,0,0,0,25.4,109.2Z"/>
    <path class="b" d="M192.58,61.18c-.24,10.63-2.42,20.77-7.72,30.11-2.45,4.32-3.62,4.49-7,1.05Q150,63.71,122.17,35.07c-6.49-6.68-11.82-6.77-18.31-.13-6.74,6.9-13.34,13.95-20.18,20.75A27,27,0,0,1,52.8,61.14c-3.39-1.56-4.77-2.92-1.37-6.3C63.6,42.76,75.32,30.23,87.57,18.24c32.05-31.37,83.57-20.82,100.67,20.52a58.87,58.87,0,0,1,3.07,10.51A48,48,0,0,1,192.58,61.18Z"/>
    <path class="b" d="M48.49,126.31c-.22-2.58,1.4-5.13,3.48-7.33,4.46-4.72,8.92-9.45,13.64-13.91,5.16-4.87,11.73-4.68,16.51.12,4.46,4.48,4.57,11.07-.07,16.21-4.46,4.94-9.1,9.73-13.87,14.37-3.74,3.64-8.43,4-13,2S48.47,132,48.49,126.31Z"/>
    <path class="b" d="M122.91,152c.17,3.59-1.36,6.45-3.79,8.93-4.19,4.29-8.31,8.65-12.56,12.88-5,5-11.82,5.38-16.58,1-5-4.51-5.45-11.06-.73-16.45s9.54-10.22,14.55-15.09c3.45-3.35,7.76-3.78,12.08-1.89A11.17,11.17,0,0,1,122.91,152Z"/>
    <path class="b" d="M54.48,82.81c4.9.21,8.47,2.29,10.53,6.61s1.75,8.66-1.35,12.16a200.76,200.76,0,0,1-15.33,15.69c-4.84,4.39-11.2,3.78-15.74-.75a11,11,0,0,1-.47-15.34c4.81-5.5,10-10.65,15.16-15.87C49.26,83.28,51.95,82.93,54.48,82.81Z"/>
    <path class="b" d="M78.85,158.54a10.83,10.83,0,0,1-10.12-6.11c-2.24-4.34-2.19-8.92,1.11-12.63,5-5.58,10.23-10.94,15.67-16.07,3.86-3.63,10-3.34,14.25,0s6,9.9,3,14.37C98,145.37,91.42,151.09,85,156.87,83.38,158.33,81.07,158.57,78.85,158.54Z"/>
  </g>
</svg>
